<svg xmlns="http://www.w3.org/2000/svg" xmlns:xlink="http://www.w3.org/1999/xlink" width="500" zoomAndPan="magnify" viewBox="0 0 375 374.999991" height="500" preserveAspectRatio="xMidYMid meet" version="1.0"><defs><g/><clipPath id="id1"><path d="M 62.449219 61 L 312.199219 61 L 312.199219 238 L 62.449219 238 Z M 62.449219 61 " clip-rule="nonzero"/></clipPath><clipPath id="id2"><path d="M 172 168 L 199 168 L 199 181.835938 L 172 181.835938 Z M 172 168 " clip-rule="nonzero"/></clipPath><clipPath id="id3"><path d="M 160 143 L 220.113281 143 L 220.113281 181.835938 L 160 181.835938 Z M 160 143 " clip-rule="nonzero"/></clipPath><clipPath id="id4"><path d="M 154.863281 116.585938 L 186 116.585938 L 186 168 L 154.863281 168 Z M 154.863281 116.585938 " clip-rule="nonzero"/></clipPath><clipPath id="id5"><path d="M 184 116.585938 L 211 116.585938 L 211 133 L 184 133 Z M 184 116.585938 " clip-rule="nonzero"/></clipPath><clipPath id="id6"><path d="M 185 116.585938 L 187 116.585938 L 187 118 L 185 118 Z M 185 116.585938 " clip-rule="nonzero"/></clipPath><clipPath id="id7"><path d="M 192 175 L 200 175 L 200 181.835938 L 192 181.835938 Z M 192 175 " clip-rule="nonzero"/></clipPath></defs><g fill="#ffffff" fill-opacity="1"><g transform="translate(11.057158, 301.183663)"><g><path d="M 34.675781 -40.734375 L 11.152344 -40.734375 C 4.988281 -40.734375 0 -35.691406 0 -29.53125 L 0 0 L 1.527344 -0.355469 C 4.582031 -1.070312 6.773438 -3.769531 6.773438 -6.925781 L 6.773438 -27.953125 C 6.773438 -31.261719 9.417969 -33.910156 12.730469 -33.910156 L 27.75 -33.910156 C 30.90625 -33.910156 33.605469 -36.101562 34.320312 -39.15625 Z M 28.15625 -22.660156 L 28.515625 -24.238281 L 15.734375 -24.238281 C 11.964844 -24.238281 8.910156 -21.183594 8.910156 -17.414062 L 21.589844 -17.414062 C 24.695312 -17.414062 27.445312 -19.601562 28.15625 -22.660156 Z M 28.15625 -22.660156 "/></g></g></g><g fill="#ffffff" fill-opacity="1"><g transform="translate(50.459083, 301.183663)"><g><path d="M 35.183594 -26.832031 C 35.183594 -34.472656 28.972656 -40.734375 21.285156 -40.734375 L 0 -40.734375 L 0 0 L 1.578125 -0.355469 C 4.683594 -1.070312 6.875 -3.820312 6.875 -7.027344 L 6.875 -33.808594 L 21.285156 -33.808594 C 25.152344 -33.808594 28.308594 -30.703125 28.308594 -26.832031 C 28.308594 -22.964844 25.152344 -19.859375 21.285156 -19.859375 L 9.46875 -19.859375 L 9.828125 -18.226562 C 10.539062 -15.121094 13.289062 -12.933594 16.496094 -12.933594 L 21.285156 -12.933594 C 28.972656 -12.933594 35.183594 -19.144531 35.183594 -26.832031 Z M 35.183594 -26.832031 "/></g></g></g><g fill="#ffffff" fill-opacity="1"><g transform="translate(89.861009, 301.183663)"><g><path d="M 34.675781 -6.773438 L 6.773438 -6.773438 L 6.773438 -40.734375 L 5.195312 -40.328125 C 2.136719 -39.664062 0 -36.914062 0 -33.757812 L 0 0 L 27.75 0 C 30.855469 0 33.605469 -2.136719 34.320312 -5.195312 Z M 34.675781 -6.773438 "/></g></g></g><g fill="#ffffff" fill-opacity="1"><g transform="translate(129.262934, 301.183663)"><g/></g></g><g fill="#ffffff" fill-opacity="1"><g transform="translate(146.215238, 301.183663)"><g><path d="M 6.773438 -40.734375 L 5.195312 -40.328125 C 2.136719 -39.664062 0 -36.914062 0 -33.757812 L 0 0 L 1.527344 -0.355469 C 4.582031 -1.070312 6.773438 -3.769531 6.773438 -6.925781 Z M 6.773438 -40.734375 "/></g></g></g><g fill="#ffffff" fill-opacity="1"><g transform="translate(157.822396, 301.183663)"><g><path d="M 34.675781 -40.734375 L 33.097656 -40.328125 C 30.042969 -39.664062 27.902344 -36.914062 27.902344 -33.757812 L 27.902344 -10.132812 C 27.648438 -10.488281 27.445312 -10.84375 27.242188 -11.203125 L 21.488281 -19.550781 L 17.769531 -25 L 6.773438 -40.734375 L 5.195312 -40.328125 C 2.136719 -39.664062 0 -36.914062 0 -33.757812 L 0 0 L 1.527344 -0.355469 C 4.582031 -1.070312 6.773438 -3.769531 6.773438 -6.925781 L 6.773438 -29.023438 L 12.167969 -21.128906 L 15.886719 -15.683594 L 27.902344 0 L 29.429688 -0.355469 C 32.484375 -1.070312 34.675781 -3.769531 34.675781 -6.925781 Z M 34.675781 -40.734375 "/></g></g></g><g fill="#ffffff" fill-opacity="1"><g transform="translate(197.224321, 301.183663)"><g><path d="M 11.863281 -23.726562 C 9.0625 -23.726562 6.773438 -26.019531 6.773438 -28.820312 C 6.773438 -31.621094 9.0625 -33.910156 11.863281 -33.910156 L 27.75 -33.910156 C 30.855469 -33.910156 33.605469 -36.101562 34.320312 -39.15625 L 34.675781 -40.734375 L 11.863281 -40.734375 C 5.296875 -40.734375 0 -35.386719 0 -28.820312 C 0 -22.25 5.296875 -16.957031 11.863281 -16.957031 L 22.8125 -16.957031 C 25.613281 -16.957031 27.902344 -14.664062 27.902344 -11.863281 C 27.902344 -9.0625 25.613281 -6.773438 22.8125 -6.773438 L 0 -6.773438 L 0.355469 -5.195312 C 1.070312 -2.136719 3.769531 0 6.925781 0 L 22.8125 0 C 29.378906 0 34.675781 -5.296875 34.675781 -11.863281 C 34.675781 -18.433594 29.378906 -23.726562 22.8125 -23.726562 Z M 11.863281 -23.726562 "/></g></g></g><g fill="#ffffff" fill-opacity="1"><g transform="translate(236.626235, 301.183663)"><g><path d="M 6.773438 -40.734375 L 5.195312 -40.328125 C 2.136719 -39.664062 0 -36.914062 0 -33.757812 L 0 0 L 1.527344 -0.355469 C 4.582031 -1.070312 6.773438 -3.769531 6.773438 -6.925781 Z M 6.773438 -40.734375 "/></g></g></g><g fill="#ffffff" fill-opacity="1"><g transform="translate(248.233382, 301.183663)"><g><path d="M 34.675781 -15.785156 C 34.675781 -19.347656 31.773438 -22.25 28.207031 -22.25 L 15.019531 -22.25 L 15.378906 -20.671875 C 16.089844 -17.617188 18.839844 -15.429688 21.945312 -15.429688 L 27.902344 -15.429688 L 27.902344 -13.289062 C 27.902344 -10.183594 30.042969 -7.433594 33.097656 -6.722656 L 34.675781 -6.363281 Z M 34.265625 -1.832031 C 33.554688 -4.734375 31.007812 -6.773438 28.054688 -6.773438 L 15.835938 -6.773438 C 10.792969 -6.773438 6.773438 -10.792969 6.773438 -15.835938 L 6.773438 -24.847656 C 6.773438 -29.886719 10.792969 -33.910156 15.835938 -33.910156 L 28.054688 -33.910156 C 31.007812 -33.910156 33.554688 -35.949219 34.265625 -38.851562 L 34.675781 -40.734375 L 14.105469 -40.734375 C 6.3125 -40.734375 0 -34.371094 0 -26.578125 L 0 -14.105469 C 0 -6.3125 6.3125 0 14.105469 0 L 34.675781 0 Z M 34.265625 -1.832031 "/></g></g></g><g fill="#ffffff" fill-opacity="1"><g transform="translate(287.635296, 301.183663)"><g><path d="M 25.050781 -23.726562 L 6.773438 -23.726562 L 6.773438 -40.734375 L 5.195312 -40.328125 C 2.136719 -39.664062 0 -36.914062 0 -33.757812 L 0 0 L 1.527344 -0.355469 C 4.582031 -1.070312 6.773438 -3.769531 6.773438 -6.925781 L 6.773438 -16.957031 L 18.125 -16.957031 C 21.285156 -16.957031 23.980469 -19.144531 24.695312 -22.199219 Z M 33.503906 -40.734375 L 31.925781 -40.328125 C 28.871094 -39.664062 26.730469 -36.914062 26.730469 -33.757812 L 26.730469 0 L 28.257812 -0.355469 C 31.3125 -1.070312 33.503906 -3.769531 33.503906 -6.925781 Z M 33.503906 -40.734375 "/></g></g></g><g fill="#ffffff" fill-opacity="1"><g transform="translate(326.222711, 301.183663)"><g><path d="M 34.726562 -40.734375 L 24.492188 -40.734375 C 18.6875 -40.734375 13.953125 -36 13.953125 -30.144531 L 13.953125 0 L 15.53125 -0.355469 C 18.585938 -1.070312 20.722656 -3.871094 20.722656 -7.128906 L 20.722656 -28.820312 C 20.722656 -31.621094 23.015625 -33.910156 25.816406 -33.910156 L 27.75 -33.910156 C 30.90625 -33.910156 33.65625 -36.101562 34.371094 -39.15625 Z M 16.140625 -40.734375 L 6.925781 -40.734375 C 6.671875 -40.734375 6.414062 -40.683594 6.160156 -40.683594 C 3.308594 -40.328125 0.96875 -38.289062 0.355469 -35.488281 L 0 -33.910156 L 9.214844 -33.910156 C 9.46875 -33.910156 9.726562 -33.910156 9.980469 -33.960938 C 12.78125 -34.265625 15.121094 -36.355469 15.785156 -39.15625 Z M 16.140625 -40.734375 "/></g></g></g><g clip-path="url(#id1)"><path fill="#f4bb28" d="M 165.367188 126.929688 C 153.328125 139 153.324219 158.632812 165.367188 170.703125 C 177.410156 182.773438 197.007812 182.773438 209.046875 170.707031 C 221.09375 158.636719 221.09375 138.996094 209.050781 126.925781 C 197.007812 114.855469 177.410156 114.859375 165.367188 126.929688 Z M 238.8125 212.804688 C 240.613281 211.003906 242.292969 209.128906 243.894531 207.207031 C 235.3125 211.238281 226.003906 213.53125 216.472656 213.757812 C 199.753906 214.164062 174.339844 208.589844 148.238281 179.835938 C 148.085938 179.679688 147.90625 179.554688 147.746094 179.394531 C 131.453125 163.066406 131.457031 136.5 147.75 120.171875 C 155.402344 112.503906 165.316406 108.476562 175.363281 108.019531 C 164.160156 101.363281 152.507812 97.957031 140.800781 98.21875 C 126.222656 98.550781 112.183594 104.609375 101.203125 115.015625 L 98.996094 117.226562 C 97.851562 118.421875 96.710938 119.605469 95.648438 120.890625 L 95.472656 120.757812 L 62.460938 153.84375 L 121.292969 212.808594 C 153.695312 245.28125 206.414062 245.277344 238.8125 212.804688 Z M 253.375 85.789062 L 312.210938 144.753906 L 279.195312 177.839844 L 279.023438 177.707031 C 277.957031 178.988281 276.820312 180.175781 275.675781 181.371094 L 273.46875 183.582031 C 262.484375 193.988281 248.449219 200.046875 233.867188 200.378906 C 222.160156 200.640625 210.507812 197.234375 199.308594 190.578125 C 209.355469 190.121094 219.265625 186.09375 226.917969 178.425781 C 243.214844 162.097656 243.214844 135.53125 226.921875 119.203125 C 226.765625 119.042969 226.585938 118.917969 226.429688 118.761719 C 200.328125 90.011719 174.917969 84.429688 158.199219 84.839844 C 148.664062 85.066406 139.355469 87.359375 130.777344 91.390625 C 132.378906 89.464844 134.058594 87.59375 135.855469 85.792969 C 168.257812 53.320312 220.972656 53.316406 253.375 85.789062 " fill-opacity="1" fill-rule="nonzero"/></g><path fill="#ffffff" d="M 219.082031 143.265625 C 219.117188 143.523438 219.179688 143.746094 219.210938 144.003906 C 219.5 145.707031 219.628906 147.441406 219.628906 149.210938 C 219.628906 155.960938 217.539062 162.261719 213.972656 167.4375 L 211.207031 166.792969 L 210.210938 156.507812 L 215.097656 144.003906 Z M 219.082031 143.265625 " fill-opacity="1" fill-rule="nonzero"/><path fill="#ffffff" d="M 207.703125 132.078125 L 215.097656 144.003906 L 210.210938 156.507812 L 198.0625 156.507812 L 190.347656 144.9375 L 196.035156 132.078125 Z M 207.703125 132.078125 " fill-opacity="1" fill-rule="nonzero"/><path fill="#ffffff" d="M 211.207031 166.792969 L 213.972656 167.4375 C 209.214844 174.347656 201.824219 179.296875 193.242188 180.839844 L 198.609375 175.566406 Z M 211.207031 166.792969 " fill-opacity="1" fill-rule="nonzero"/><path fill="#ffffff" d="M 210.117188 126.390625 L 207.671875 132.078125 L 196.003906 132.078125 L 184.65625 124.6875 L 185.847656 117.132812 C 186.394531 117.101562 186.941406 117.101562 187.488281 117.101562 C 195.554688 117.101562 202.949219 120.089844 208.574219 124.976562 C 209.117188 125.425781 209.632812 125.90625 210.117188 126.390625 Z M 210.117188 126.390625 " fill-opacity="1" fill-rule="nonzero"/><g clip-path="url(#id2)"><path fill="#ffffff" d="M 198.609375 175.566406 L 193.242188 180.839844 C 191.375 181.160156 189.449219 181.355469 187.488281 181.355469 C 184.753906 181.355469 182.117188 181 179.578125 180.355469 L 172.445312 174.765625 L 177.683594 168.175781 L 191.085938 168.175781 Z M 198.609375 175.566406 " fill-opacity="1" fill-rule="nonzero"/></g><path fill="#ffffff" d="M 190.347656 144.9375 L 198.0625 156.507812 L 191.085938 168.175781 L 177.683594 168.175781 L 170.449219 156.121094 L 177.007812 144.9375 Z M 190.347656 144.9375 " fill-opacity="1" fill-rule="nonzero"/><path fill="#ffffff" d="M 185.847656 117.101562 L 184.65625 124.652344 L 172.574219 132.078125 L 163.15625 132.078125 L 163.15625 128.1875 C 168.714844 121.761719 176.78125 117.550781 185.847656 117.101562 Z M 185.847656 117.101562 " fill-opacity="1" fill-rule="nonzero"/><path fill="#ffffff" d="M 179.578125 180.355469 C 171.898438 178.429688 165.308594 173.703125 160.96875 167.371094 L 172.445312 174.765625 Z M 179.578125 180.355469 " fill-opacity="1" fill-rule="nonzero"/><path fill="#ffffff" d="M 172.574219 132.078125 L 177.007812 144.9375 L 170.449219 156.121094 L 160.453125 155.480469 L 155.601562 145.097656 L 163.15625 132.078125 Z M 172.574219 132.078125 " fill-opacity="1" fill-rule="nonzero"/><path fill="#ffffff" d="M 160.453125 155.480469 L 160.9375 167.339844 C 157.402344 162.164062 155.34375 155.929688 155.34375 149.210938 C 155.34375 147.828125 155.441406 146.445312 155.601562 145.097656 Z M 160.453125 155.480469 " fill-opacity="1" fill-rule="nonzero"/><path fill="#545454" d="M 210.117188 126.390625 C 214.648438 130.890625 217.863281 136.738281 219.082031 143.265625 L 215.097656 144.003906 L 207.671875 132.078125 Z M 210.117188 126.390625 " fill-opacity="1" fill-rule="nonzero"/><path fill="#545454" d="M 210.210938 156.507812 L 211.207031 166.792969 L 198.609375 175.566406 L 191.085938 168.175781 L 198.0625 156.507812 Z M 210.210938 156.507812 " fill-opacity="1" fill-rule="nonzero"/><path fill="#545454" d="M 196.035156 132.078125 L 190.347656 144.9375 L 177.007812 144.9375 L 172.574219 132.078125 L 184.65625 124.6875 Z M 196.035156 132.078125 " fill-opacity="1" fill-rule="nonzero"/><path fill="#545454" d="M 170.449219 156.121094 L 177.683594 168.175781 L 172.445312 174.765625 L 160.96875 167.371094 C 160.96875 167.371094 160.96875 167.371094 160.96875 167.339844 L 160.453125 155.480469 Z M 170.449219 156.121094 " fill-opacity="1" fill-rule="nonzero"/><path fill="#545454" d="M 163.15625 128.1875 L 163.15625 132.078125 L 155.601562 145.097656 C 156.4375 138.667969 159.136719 132.851562 163.15625 128.1875 Z M 163.15625 128.1875 " fill-opacity="1" fill-rule="nonzero"/><g clip-path="url(#id3)"><path fill="#545454" d="M 187.488281 181.835938 C 184.753906 181.835938 182.054688 181.515625 179.449219 180.839844 C 171.769531 178.910156 165.050781 174.21875 160.550781 167.628906 L 161.355469 167.082031 C 165.726562 173.445312 172.21875 178.011719 179.675781 179.90625 C 184.015625 181 188.675781 181.160156 193.144531 180.355469 C 201.371094 178.878906 208.796875 174.058594 213.554688 167.148438 C 217.1875 161.875 219.117188 155.640625 219.117188 149.210938 C 219.117188 147.507812 218.988281 145.773438 218.699219 144.101562 C 218.664062 143.84375 218.632812 143.617188 218.570312 143.394531 L 219.5 143.199219 C 219.566406 143.457031 219.597656 143.714844 219.628906 143.9375 C 219.917969 145.675781 220.046875 147.441406 220.046875 149.210938 C 220.046875 155.863281 218.054688 162.261719 214.292969 167.691406 C 209.40625 174.828125 201.726562 179.777344 193.273438 181.320312 C 191.40625 181.675781 189.449219 181.835938 187.488281 181.835938 Z M 187.488281 181.835938 " fill-opacity="1" fill-rule="nonzero"/></g><g clip-path="url(#id4)"><path fill="#545454" d="M 160.550781 167.628906 C 156.824219 162.195312 154.863281 155.832031 154.863281 149.210938 C 154.863281 147.828125 154.957031 146.414062 155.117188 145.0625 L 155.117188 145.03125 C 155.921875 138.667969 158.589844 132.753906 162.800781 127.898438 C 168.585938 121.183594 176.976562 117.101562 185.816406 116.648438 L 185.878906 117.613281 C 177.296875 118.03125 169.164062 122.019531 163.539062 128.542969 C 159.457031 133.203125 156.886719 138.957031 156.082031 145.128906 L 156.082031 145.160156 C 155.921875 146.480469 155.824219 147.859375 155.824219 149.210938 C 155.824219 155.605469 157.722656 161.8125 161.355469 167.082031 Z M 160.550781 167.628906 " fill-opacity="1" fill-rule="nonzero"/></g><path fill="#545454" d="M 214.871094 144.550781 L 207.285156 132.335938 L 208.089844 131.820312 L 215.324219 143.457031 L 218.503906 142.878906 C 217.28125 136.738281 214.261719 131.179688 209.792969 126.742188 L 210.46875 126.066406 C 215.195312 130.761719 218.34375 136.675781 219.566406 143.199219 L 219.660156 143.683594 Z M 214.871094 144.550781 " fill-opacity="1" fill-rule="nonzero"/><g clip-path="url(#id5)"><path fill="#545454" d="M 208.027344 132.5625 L 196.035156 132.5625 L 196.035156 131.597656 L 207.382812 131.597656 L 209.570312 126.519531 C 209.117188 126.101562 208.699219 125.714844 208.28125 125.328125 C 202.496094 120.3125 195.136719 117.550781 187.488281 117.550781 C 187.101562 117.550781 186.683594 117.550781 186.265625 117.582031 L 185.140625 124.75 L 184.175781 124.589844 L 185.429688 116.648438 L 185.816406 116.617188 C 186.394531 116.585938 186.941406 116.585938 187.488281 116.585938 C 195.363281 116.585938 202.949219 119.414062 208.894531 124.589844 C 209.40625 125.039062 209.921875 125.523438 210.46875 126.066406 L 210.695312 126.292969 Z M 208.027344 132.5625 " fill-opacity="1" fill-rule="nonzero"/></g><path fill="#545454" d="M 190.667969 145.417969 L 176.65625 145.417969 L 171.960938 131.886719 L 184.65625 124.105469 L 196.617188 131.917969 Z M 177.363281 144.453125 L 190.058594 144.453125 L 195.457031 132.273438 L 184.65625 125.230469 L 173.152344 132.304688 Z M 177.363281 144.453125 " fill-opacity="1" fill-rule="nonzero"/><path fill="#545454" d="M 172.574219 132.5625 L 162.671875 132.5625 L 162.671875 128.1875 L 163.636719 128.1875 L 163.636719 131.597656 L 172.574219 131.597656 Z M 172.574219 132.5625 " fill-opacity="1" fill-rule="nonzero"/><path fill="#545454" d="M 155.601562 145.578125 C 155.535156 145.578125 155.441406 145.546875 155.375 145.515625 C 155.152344 145.386719 155.054688 145.097656 155.183594 144.871094 C 155.183594 144.871094 155.183594 144.839844 155.214844 144.839844 L 162.769531 131.820312 C 162.898438 131.597656 163.1875 131.5 163.445312 131.660156 C 163.667969 131.789062 163.765625 132.078125 163.605469 132.335938 L 156.019531 145.320312 C 155.921875 145.480469 155.761719 145.578125 155.601562 145.578125 Z M 155.601562 145.578125 " fill-opacity="1" fill-rule="nonzero"/><path fill="#545454" d="M 172.539062 175.40625 L 160.488281 167.628906 L 159.972656 154.964844 L 170.773438 155.671875 L 178.292969 168.207031 Z M 161.417969 167.082031 L 172.347656 174.121094 L 177.105469 168.144531 L 170.195312 156.605469 L 160.96875 155.992188 Z M 161.417969 167.082031 " fill-opacity="1" fill-rule="nonzero"/><path fill="#545454" d="M 176.589844 144.679688 L 177.421875 145.164062 L 170.871094 156.378906 L 170.039062 155.890625 Z M 176.589844 144.679688 " fill-opacity="1" fill-rule="nonzero"/><g clip-path="url(#id6)"><path fill="#545454" d="M 185.847656 117.582031 C 185.816406 117.582031 185.78125 117.582031 185.75 117.582031 C 185.492188 117.550781 185.300781 117.292969 185.367188 117.035156 L 185.367188 117.003906 C 185.398438 116.746094 185.65625 116.554688 185.910156 116.617188 C 186.199219 116.648438 186.363281 116.90625 186.328125 117.164062 L 186.328125 117.195312 C 186.265625 117.421875 186.074219 117.582031 185.847656 117.582031 Z M 185.847656 117.582031 " fill-opacity="1" fill-rule="nonzero"/></g><path fill="#545454" d="M 210.117188 126.871094 C 209.859375 126.871094 209.632812 126.648438 209.632812 126.390625 C 209.632812 126.132812 209.859375 125.90625 210.117188 125.90625 C 210.371094 125.90625 210.597656 126.132812 210.597656 126.390625 C 210.597656 126.648438 210.40625 126.871094 210.117188 126.871094 Z M 210.117188 126.871094 " fill-opacity="1" fill-rule="nonzero"/><path fill="#545454" d="M 198.0625 156.988281 C 197.902344 156.988281 197.742188 156.925781 197.675781 156.765625 L 189.960938 145.191406 C 189.800781 144.96875 189.867188 144.679688 190.089844 144.519531 C 190.316406 144.355469 190.605469 144.421875 190.765625 144.648438 L 198.480469 156.21875 C 198.640625 156.441406 198.574219 156.730469 198.351562 156.894531 C 198.253906 156.957031 198.15625 156.988281 198.0625 156.988281 Z M 198.0625 156.988281 " fill-opacity="1" fill-rule="nonzero"/><path fill="#545454" d="M 210.210938 156.988281 C 210.148438 156.988281 210.082031 156.988281 210.050781 156.957031 C 209.792969 156.859375 209.664062 156.570312 209.761719 156.347656 L 214.648438 143.84375 C 214.742188 143.585938 215.03125 143.457031 215.257812 143.554688 C 215.515625 143.648438 215.644531 143.9375 215.546875 144.164062 L 210.660156 156.667969 C 210.597656 156.859375 210.40625 156.988281 210.210938 156.988281 Z M 210.210938 156.988281 " fill-opacity="1" fill-rule="nonzero"/><path fill="#545454" d="M 198.574219 176.179688 L 190.476562 168.238281 L 197.773438 155.992188 L 210.660156 155.992188 L 211.722656 166.984375 Z M 191.699219 168.109375 L 198.671875 174.957031 L 210.726562 166.566406 L 209.792969 156.988281 L 198.351562 156.988281 Z M 191.699219 168.109375 " fill-opacity="1" fill-rule="nonzero"/><path fill="#545454" d="M 213.972656 167.917969 C 213.941406 167.917969 213.90625 167.917969 213.875 167.917969 L 211.113281 167.273438 C 210.855469 167.210938 210.695312 166.953125 210.757812 166.695312 C 210.824219 166.4375 211.078125 166.277344 211.335938 166.34375 L 214.101562 166.984375 C 214.359375 167.050781 214.519531 167.308594 214.453125 167.5625 C 214.390625 167.757812 214.199219 167.917969 213.972656 167.917969 Z M 213.972656 167.917969 " fill-opacity="1" fill-rule="nonzero"/><g clip-path="url(#id7)"><path fill="#545454" d="M 193.242188 181.320312 C 193.113281 181.320312 192.984375 181.289062 192.886719 181.191406 C 192.695312 181 192.695312 180.710938 192.886719 180.519531 L 198.253906 175.246094 C 198.449219 175.054688 198.738281 175.054688 198.929688 175.246094 C 199.121094 175.4375 199.121094 175.730469 198.929688 175.921875 L 193.59375 181.191406 C 193.496094 181.289062 193.367188 181.320312 193.242188 181.320312 Z M 193.242188 181.320312 " fill-opacity="1" fill-rule="nonzero"/></g><path fill="#545454" d="M 191.085938 168.65625 L 177.683594 168.65625 C 177.425781 168.65625 177.199219 168.433594 177.199219 168.175781 C 177.199219 167.917969 177.425781 167.691406 177.683594 167.691406 L 191.085938 167.691406 C 191.34375 167.691406 191.570312 167.917969 191.570312 168.175781 C 191.570312 168.433594 191.34375 168.65625 191.085938 168.65625 Z M 191.085938 168.65625 " fill-opacity="1" fill-rule="nonzero"/><path fill="#545454" d="M 172.722656 174.363281 L 179.84375 179.972656 L 179.25 180.730469 L 172.128906 175.121094 Z M 172.722656 174.363281 " fill-opacity="1" fill-rule="nonzero"/><path fill="#545454" d="M 160.003906 155.703125 L 155.183594 145.320312 L 156.019531 144.871094 L 156.050781 144.871094 L 160.90625 155.285156 Z M 160.003906 155.703125 " fill-opacity="1" fill-rule="nonzero"/></svg>