<svg xmlns="http://www.w3.org/2000/svg" xmlns:xlink="http://www.w3.org/1999/xlink" width="500" zoomAndPan="magnify" viewBox="0 0 375 374.999991" height="500" preserveAspectRatio="xMidYMid meet" version="1.0"><defs><g/></defs><g fill="#f4bb28" fill-opacity="1"><g transform="translate(11.058979, 202.124987)"><g><path d="M 34.675781 -40.734375 L 11.152344 -40.734375 C 4.988281 -40.734375 0 -35.691406 0 -29.53125 L 0 0 L 1.527344 -0.355469 C 4.582031 -1.070312 6.773438 -3.769531 6.773438 -6.925781 L 6.773438 -27.953125 C 6.773438 -31.261719 9.417969 -33.910156 12.730469 -33.910156 L 27.75 -33.910156 C 30.90625 -33.910156 33.605469 -36.101562 34.320312 -39.15625 Z M 28.15625 -22.660156 L 28.515625 -24.238281 L 15.734375 -24.238281 C 11.964844 -24.238281 8.910156 -21.183594 8.910156 -17.414062 L 21.589844 -17.414062 C 24.695312 -17.414062 27.445312 -19.601562 28.15625 -22.660156 Z M 28.15625 -22.660156 "/></g></g></g><g fill="#f4bb28" fill-opacity="1"><g transform="translate(50.460905, 202.124987)"><g><path d="M 35.183594 -26.832031 C 35.183594 -34.472656 28.972656 -40.734375 21.285156 -40.734375 L 0 -40.734375 L 0 0 L 1.578125 -0.355469 C 4.683594 -1.070312 6.875 -3.820312 6.875 -7.027344 L 6.875 -33.808594 L 21.285156 -33.808594 C 25.152344 -33.808594 28.308594 -30.703125 28.308594 -26.832031 C 28.308594 -22.964844 25.152344 -19.859375 21.285156 -19.859375 L 9.46875 -19.859375 L 9.828125 -18.226562 C 10.539062 -15.121094 13.289062 -12.933594 16.496094 -12.933594 L 21.285156 -12.933594 C 28.972656 -12.933594 35.183594 -19.144531 35.183594 -26.832031 Z M 35.183594 -26.832031 "/></g></g></g><g fill="#f4bb28" fill-opacity="1"><g transform="translate(89.86283, 202.124987)"><g><path d="M 34.675781 -6.773438 L 6.773438 -6.773438 L 6.773438 -40.734375 L 5.195312 -40.328125 C 2.136719 -39.664062 0 -36.914062 0 -33.757812 L 0 0 L 27.75 0 C 30.855469 0 33.605469 -2.136719 34.320312 -5.195312 Z M 34.675781 -6.773438 "/></g></g></g><g fill="#f4bb28" fill-opacity="1"><g transform="translate(129.264755, 202.124987)"><g/></g></g><g fill="#f4bb28" fill-opacity="1"><g transform="translate(146.217059, 202.124987)"><g><path d="M 6.773438 -40.734375 L 5.195312 -40.328125 C 2.136719 -39.664062 0 -36.914062 0 -33.757812 L 0 0 L 1.527344 -0.355469 C 4.582031 -1.070312 6.773438 -3.769531 6.773438 -6.925781 Z M 6.773438 -40.734375 "/></g></g></g><g fill="#f4bb28" fill-opacity="1"><g transform="translate(157.824217, 202.124987)"><g><path d="M 34.675781 -40.734375 L 33.097656 -40.328125 C 30.042969 -39.664062 27.902344 -36.914062 27.902344 -33.757812 L 27.902344 -10.132812 C 27.648438 -10.488281 27.445312 -10.84375 27.242188 -11.203125 L 21.488281 -19.550781 L 17.769531 -25 L 6.773438 -40.734375 L 5.195312 -40.328125 C 2.136719 -39.664062 0 -36.914062 0 -33.757812 L 0 0 L 1.527344 -0.355469 C 4.582031 -1.070312 6.773438 -3.769531 6.773438 -6.925781 L 6.773438 -29.023438 L 12.167969 -21.128906 L 15.886719 -15.683594 L 27.902344 0 L 29.429688 -0.355469 C 32.484375 -1.070312 34.675781 -3.769531 34.675781 -6.925781 Z M 34.675781 -40.734375 "/></g></g></g><g fill="#f4bb28" fill-opacity="1"><g transform="translate(197.226142, 202.124987)"><g><path d="M 11.863281 -23.726562 C 9.0625 -23.726562 6.773438 -26.019531 6.773438 -28.820312 C 6.773438 -31.621094 9.0625 -33.910156 11.863281 -33.910156 L 27.75 -33.910156 C 30.855469 -33.910156 33.605469 -36.101562 34.320312 -39.15625 L 34.675781 -40.734375 L 11.863281 -40.734375 C 5.296875 -40.734375 0 -35.386719 0 -28.820312 C 0 -22.25 5.296875 -16.957031 11.863281 -16.957031 L 22.8125 -16.957031 C 25.613281 -16.957031 27.902344 -14.664062 27.902344 -11.863281 C 27.902344 -9.0625 25.613281 -6.773438 22.8125 -6.773438 L 0 -6.773438 L 0.355469 -5.195312 C 1.070312 -2.136719 3.769531 0 6.925781 0 L 22.8125 0 C 29.378906 0 34.675781 -5.296875 34.675781 -11.863281 C 34.675781 -18.433594 29.378906 -23.726562 22.8125 -23.726562 Z M 11.863281 -23.726562 "/></g></g></g><g fill="#f4bb28" fill-opacity="1"><g transform="translate(236.628056, 202.124987)"><g><path d="M 6.773438 -40.734375 L 5.195312 -40.328125 C 2.136719 -39.664062 0 -36.914062 0 -33.757812 L 0 0 L 1.527344 -0.355469 C 4.582031 -1.070312 6.773438 -3.769531 6.773438 -6.925781 Z M 6.773438 -40.734375 "/></g></g></g><g fill="#f4bb28" fill-opacity="1"><g transform="translate(248.235203, 202.124987)"><g><path d="M 34.675781 -15.785156 C 34.675781 -19.347656 31.773438 -22.25 28.207031 -22.25 L 15.019531 -22.25 L 15.378906 -20.671875 C 16.089844 -17.617188 18.839844 -15.429688 21.945312 -15.429688 L 27.902344 -15.429688 L 27.902344 -13.289062 C 27.902344 -10.183594 30.042969 -7.433594 33.097656 -6.722656 L 34.675781 -6.363281 Z M 34.265625 -1.832031 C 33.554688 -4.734375 31.007812 -6.773438 28.054688 -6.773438 L 15.835938 -6.773438 C 10.792969 -6.773438 6.773438 -10.792969 6.773438 -15.835938 L 6.773438 -24.847656 C 6.773438 -29.886719 10.792969 -33.910156 15.835938 -33.910156 L 28.054688 -33.910156 C 31.007812 -33.910156 33.554688 -35.949219 34.265625 -38.851562 L 34.675781 -40.734375 L 14.105469 -40.734375 C 6.3125 -40.734375 0 -34.371094 0 -26.578125 L 0 -14.105469 C 0 -6.3125 6.3125 0 14.105469 0 L 34.675781 0 Z M 34.265625 -1.832031 "/></g></g></g><g fill="#f4bb28" fill-opacity="1"><g transform="translate(287.637117, 202.124987)"><g><path d="M 25.050781 -23.726562 L 6.773438 -23.726562 L 6.773438 -40.734375 L 5.195312 -40.328125 C 2.136719 -39.664062 0 -36.914062 0 -33.757812 L 0 0 L 1.527344 -0.355469 C 4.582031 -1.070312 6.773438 -3.769531 6.773438 -6.925781 L 6.773438 -16.957031 L 18.125 -16.957031 C 21.285156 -16.957031 23.980469 -19.144531 24.695312 -22.199219 Z M 33.503906 -40.734375 L 31.925781 -40.328125 C 28.871094 -39.664062 26.730469 -36.914062 26.730469 -33.757812 L 26.730469 0 L 28.257812 -0.355469 C 31.3125 -1.070312 33.503906 -3.769531 33.503906 -6.925781 Z M 33.503906 -40.734375 "/></g></g></g><g fill="#f4bb28" fill-opacity="1"><g transform="translate(326.224532, 202.124987)"><g><path d="M 34.726562 -40.734375 L 24.492188 -40.734375 C 18.6875 -40.734375 13.953125 -36 13.953125 -30.144531 L 13.953125 0 L 15.53125 -0.355469 C 18.585938 -1.070312 20.722656 -3.871094 20.722656 -7.128906 L 20.722656 -28.820312 C 20.722656 -31.621094 23.015625 -33.910156 25.816406 -33.910156 L 27.75 -33.910156 C 30.90625 -33.910156 33.65625 -36.101562 34.371094 -39.15625 Z M 16.140625 -40.734375 L 6.925781 -40.734375 C 6.671875 -40.734375 6.414062 -40.683594 6.160156 -40.683594 C 3.308594 -40.328125 0.96875 -38.289062 0.355469 -35.488281 L 0 -33.910156 L 9.214844 -33.910156 C 9.46875 -33.910156 9.726562 -33.910156 9.980469 -33.960938 C 12.78125 -34.265625 15.121094 -36.355469 15.785156 -39.15625 Z M 16.140625 -40.734375 "/></g></g></g></svg>