<svg xmlns="http://www.w3.org/2000/svg" xmlns:xlink="http://www.w3.org/1999/xlink" width="500" zoomAndPan="magnify" viewBox="0 0 375 374.999991" height="500" preserveAspectRatio="xMidYMid meet" version="1.0"><defs><clipPath id="id1"><path d="M 164 209 L 204 209 L 204 229.890625 L 164 229.890625 Z M 164 209 " clip-rule="nonzero"/></clipPath><clipPath id="id2"><path d="M 147 172 L 236 172 L 236 229.890625 L 147 229.890625 Z M 147 172 " clip-rule="nonzero"/></clipPath><clipPath id="id3"><path d="M 138.5625 132.390625 L 185 132.390625 L 185 209 L 138.5625 209 Z M 138.5625 132.390625 " clip-rule="nonzero"/></clipPath><clipPath id="id4"><path d="M 182 132.390625 L 222 132.390625 L 222 157 L 182 157 Z M 182 132.390625 " clip-rule="nonzero"/></clipPath><clipPath id="id5"><path d="M 138.5625 154 L 152 154 L 152 176 L 138.5625 176 Z M 138.5625 154 " clip-rule="nonzero"/></clipPath><clipPath id="id6"><path d="M 184 132.390625 L 186 132.390625 L 186 134 L 184 134 Z M 184 132.390625 " clip-rule="nonzero"/></clipPath><clipPath id="id7"><path d="M 195 219 L 205 219 L 205 229.890625 L 195 229.890625 Z M 195 219 " clip-rule="nonzero"/></clipPath></defs><path fill="#f4bb28" d="M 154.535156 147.949219 C 136.453125 166.050781 136.453125 195.503906 154.535156 213.605469 C 172.617188 231.714844 202.039062 231.714844 220.121094 213.613281 C 238.203125 195.507812 238.203125 166.042969 220.121094 147.941406 C 202.039062 129.832031 172.617188 129.839844 154.535156 147.949219 Z M 264.8125 276.761719 C 267.515625 274.058594 270.035156 271.25 272.441406 268.367188 C 259.558594 274.414062 245.582031 277.851562 231.265625 278.1875 C 206.164062 278.800781 168.007812 270.4375 128.816406 227.308594 C 128.582031 227.074219 128.3125 226.882812 128.074219 226.648438 C 103.613281 202.152344 103.617188 162.300781 128.082031 137.808594 C 139.570312 126.308594 154.453125 120.265625 169.539062 119.578125 C 152.722656 109.59375 135.226562 104.484375 117.648438 104.875 C 95.753906 105.375 74.679688 114.464844 58.191406 130.074219 L 54.878906 133.390625 C 53.15625 135.183594 51.445312 136.960938 49.847656 138.886719 L 49.589844 138.683594 L 0.015625 188.320312 L 88.355469 276.769531 C 137.007812 325.476562 216.164062 325.472656 264.8125 276.761719 Z M 286.675781 86.230469 L 375.019531 174.679688 L 325.449219 224.316406 L 325.1875 224.113281 C 323.589844 226.039062 321.878906 227.816406 320.160156 229.609375 L 316.84375 232.925781 C 300.355469 248.535156 279.28125 257.625 257.390625 258.125 C 239.808594 258.515625 222.3125 253.40625 205.496094 243.421875 C 220.582031 242.734375 235.464844 236.695312 246.953125 225.191406 C 271.417969 200.699219 271.421875 160.847656 246.960938 136.351562 C 246.722656 136.117188 246.453125 135.925781 246.21875 135.691406 C 207.027344 92.566406 168.871094 84.199219 143.773438 84.8125 C 129.453125 85.148438 115.480469 88.585938 102.59375 94.632812 C 105 91.75 107.523438 88.941406 110.222656 86.238281 C 158.875 37.527344 238.027344 37.523438 286.675781 86.230469 " fill-opacity="1" fill-rule="nonzero"/><path fill="#ffffff" d="M 234.527344 172.253906 C 234.574219 172.640625 234.671875 172.976562 234.71875 173.359375 C 235.152344 175.90625 235.34375 178.5 235.34375 181.140625 C 235.34375 191.226562 232.21875 200.640625 226.890625 208.375 L 222.757812 207.414062 L 221.269531 192.042969 L 228.570312 173.359375 Z M 234.527344 172.253906 " fill-opacity="1" fill-rule="nonzero"/><path fill="#ffffff" d="M 217.523438 155.542969 L 228.570312 173.359375 L 221.269531 192.042969 L 203.113281 192.042969 L 191.585938 174.753906 L 200.089844 155.542969 Z M 217.523438 155.542969 " fill-opacity="1" fill-rule="nonzero"/><path fill="#ffffff" d="M 222.757812 207.414062 L 226.890625 208.375 C 219.78125 218.699219 208.734375 226.097656 195.910156 228.402344 L 203.929688 220.527344 Z M 222.757812 207.414062 " fill-opacity="1" fill-rule="nonzero"/><path fill="#ffffff" d="M 221.125 147.039062 L 217.476562 155.542969 L 200.039062 155.542969 L 183.085938 144.496094 L 184.863281 133.207031 C 185.679688 133.160156 186.496094 133.160156 187.3125 133.160156 C 199.367188 133.160156 210.414062 137.625 218.820312 144.925781 C 219.636719 145.597656 220.40625 146.320312 221.125 147.039062 Z M 221.125 147.039062 " fill-opacity="1" fill-rule="nonzero"/><g clip-path="url(#id1)"><path fill="#ffffff" d="M 203.929688 220.527344 L 195.910156 228.402344 C 193.125 228.882812 190.242188 229.171875 187.3125 229.171875 C 183.230469 229.171875 179.292969 228.640625 175.496094 227.683594 L 164.835938 219.324219 L 172.664062 209.480469 L 192.691406 209.480469 Z M 203.929688 220.527344 " fill-opacity="1" fill-rule="nonzero"/></g><path fill="#ffffff" d="M 191.585938 174.753906 L 203.113281 192.042969 L 192.691406 209.480469 L 172.664062 209.480469 L 161.855469 191.46875 L 171.65625 174.753906 Z M 191.585938 174.753906 " fill-opacity="1" fill-rule="nonzero"/><path fill="#ffffff" d="M 184.863281 133.160156 L 183.085938 144.445312 L 165.027344 155.542969 L 150.953125 155.542969 L 150.953125 149.730469 C 159.265625 140.125 171.320312 133.832031 184.863281 133.160156 Z M 184.863281 133.160156 " fill-opacity="1" fill-rule="nonzero"/><path fill="#ffffff" d="M 175.496094 227.683594 C 164.019531 224.800781 154.171875 217.738281 147.6875 208.277344 L 164.835938 219.324219 Z M 175.496094 227.683594 " fill-opacity="1" fill-rule="nonzero"/><path fill="#ffffff" d="M 165.027344 155.542969 L 171.65625 174.753906 L 161.855469 191.46875 L 146.921875 190.507812 L 139.667969 174.992188 L 150.953125 155.542969 Z M 165.027344 155.542969 " fill-opacity="1" fill-rule="nonzero"/><path fill="#ffffff" d="M 146.921875 190.507812 L 147.640625 208.230469 C 142.355469 200.496094 139.285156 191.179688 139.285156 181.140625 C 139.285156 179.074219 139.425781 177.011719 139.667969 174.992188 Z M 146.921875 190.507812 " fill-opacity="1" fill-rule="nonzero"/><path fill="#545454" d="M 221.125 147.039062 C 227.898438 153.765625 232.699219 162.503906 234.527344 172.253906 L 228.570312 173.359375 L 217.476562 155.542969 Z M 221.125 147.039062 " fill-opacity="1" fill-rule="nonzero"/><path fill="#545454" d="M 221.269531 192.042969 L 222.757812 207.414062 L 203.929688 220.527344 L 192.691406 209.480469 L 203.113281 192.042969 Z M 221.269531 192.042969 " fill-opacity="1" fill-rule="nonzero"/><path fill="#545454" d="M 200.089844 155.542969 L 191.585938 174.753906 L 171.65625 174.753906 L 165.027344 155.542969 L 183.085938 144.496094 Z M 200.089844 155.542969 " fill-opacity="1" fill-rule="nonzero"/><path fill="#545454" d="M 161.855469 191.46875 L 172.664062 209.480469 L 164.835938 219.324219 L 147.6875 208.277344 C 147.6875 208.277344 147.6875 208.277344 147.6875 208.230469 L 146.921875 190.507812 Z M 161.855469 191.46875 " fill-opacity="1" fill-rule="nonzero"/><path fill="#545454" d="M 150.953125 149.730469 L 150.953125 155.542969 L 139.667969 174.992188 C 140.917969 165.386719 144.949219 156.695312 150.953125 149.730469 Z M 150.953125 149.730469 " fill-opacity="1" fill-rule="nonzero"/><g clip-path="url(#id2)"><path fill="#545454" d="M 187.3125 229.890625 C 183.230469 229.890625 179.195312 229.410156 175.304688 228.402344 C 163.828125 225.519531 153.789062 218.507812 147.0625 208.664062 L 148.265625 207.84375 C 154.796875 217.355469 164.5 224.175781 175.640625 227.007812 C 182.125 228.640625 189.089844 228.882812 195.765625 227.683594 C 208.0625 225.472656 219.15625 218.269531 226.265625 207.941406 C 231.691406 200.066406 234.574219 190.746094 234.574219 181.140625 C 234.574219 178.59375 234.382812 176.003906 233.949219 173.503906 C 233.902344 173.121094 233.855469 172.785156 233.757812 172.449219 L 235.152344 172.160156 C 235.246094 172.542969 235.292969 172.929688 235.34375 173.265625 C 235.773438 175.859375 235.96875 178.5 235.96875 181.140625 C 235.96875 191.082031 232.988281 200.640625 227.371094 208.757812 C 220.070312 219.421875 208.589844 226.816406 195.957031 229.121094 C 193.171875 229.652344 190.242188 229.890625 187.3125 229.890625 Z M 187.3125 229.890625 " fill-opacity="1" fill-rule="nonzero"/></g><g clip-path="url(#id3)"><path fill="#545454" d="M 147.0625 208.664062 C 141.492188 200.546875 138.5625 191.035156 138.5625 181.140625 C 138.5625 179.074219 138.707031 176.960938 138.949219 174.945312 L 138.949219 174.898438 C 140.148438 165.386719 144.132812 156.550781 150.425781 149.296875 C 159.070312 139.257812 171.605469 133.160156 184.816406 132.488281 L 184.910156 133.929688 C 172.085938 134.550781 159.9375 140.507812 151.53125 150.257812 C 145.429688 157.222656 141.589844 165.820312 140.386719 175.042969 L 140.386719 175.089844 C 140.148438 177.058594 140.003906 179.125 140.003906 181.140625 C 140.003906 190.699219 142.835938 199.96875 148.265625 207.84375 Z M 147.0625 208.664062 " fill-opacity="1" fill-rule="nonzero"/></g><path fill="#545454" d="M 228.234375 174.175781 L 216.898438 155.925781 L 218.101562 155.15625 L 228.90625 172.542969 L 233.660156 171.679688 C 231.835938 162.503906 227.320312 154.195312 220.644531 147.570312 L 221.652344 146.558594 C 228.714844 153.574219 233.421875 162.410156 235.246094 172.160156 L 235.390625 172.878906 Z M 228.234375 174.175781 " fill-opacity="1" fill-rule="nonzero"/><g clip-path="url(#id4)"><path fill="#545454" d="M 218.003906 156.261719 L 200.089844 156.261719 L 200.089844 154.820312 L 217.042969 154.820312 L 220.308594 147.230469 C 219.636719 146.609375 219.011719 146.03125 218.386719 145.457031 C 209.742188 137.960938 198.742188 133.832031 187.3125 133.832031 C 186.738281 133.832031 186.113281 133.832031 185.488281 133.878906 L 183.808594 144.589844 L 182.367188 144.351562 L 184.238281 132.488281 L 184.816406 132.4375 C 185.679688 132.390625 186.496094 132.390625 187.3125 132.390625 C 199.082031 132.390625 210.414062 136.617188 219.300781 144.351562 C 220.070312 145.023438 220.835938 145.742188 221.652344 146.558594 L 221.992188 146.894531 Z M 218.003906 156.261719 " fill-opacity="1" fill-rule="nonzero"/></g><path fill="#545454" d="M 192.066406 175.472656 L 171.128906 175.472656 L 164.113281 155.253906 L 183.085938 143.628906 L 200.953125 155.300781 Z M 172.183594 174.03125 L 191.15625 174.03125 L 199.222656 155.828125 L 183.085938 145.3125 L 165.890625 155.878906 Z M 172.183594 174.03125 " fill-opacity="1" fill-rule="nonzero"/><path fill="#545454" d="M 165.027344 156.261719 L 150.234375 156.261719 L 150.234375 149.730469 L 151.675781 149.730469 L 151.675781 154.820312 L 165.027344 154.820312 Z M 165.027344 156.261719 " fill-opacity="1" fill-rule="nonzero"/><g clip-path="url(#id5)"><path fill="#545454" d="M 139.667969 175.714844 C 139.570312 175.714844 139.425781 175.664062 139.332031 175.617188 C 138.996094 175.425781 138.851562 174.992188 139.042969 174.65625 C 139.042969 174.65625 139.042969 174.609375 139.089844 174.609375 L 150.378906 155.15625 C 150.570312 154.820312 151.003906 154.675781 151.386719 154.917969 C 151.722656 155.109375 151.867188 155.542969 151.628906 155.925781 L 140.292969 175.328125 C 140.148438 175.570312 139.90625 175.714844 139.667969 175.714844 Z M 139.667969 175.714844 " fill-opacity="1" fill-rule="nonzero"/></g><path fill="#545454" d="M 164.980469 220.285156 L 146.96875 208.664062 L 146.199219 189.738281 L 162.335938 190.796875 L 173.578125 209.527344 Z M 148.359375 207.84375 L 164.691406 218.363281 L 171.800781 209.429688 L 161.472656 192.1875 L 147.6875 191.277344 Z M 148.359375 207.84375 " fill-opacity="1" fill-rule="nonzero"/><path fill="#545454" d="M 171.027344 174.371094 L 172.273438 175.097656 L 162.484375 191.847656 L 161.238281 191.121094 Z M 171.027344 174.371094 " fill-opacity="1" fill-rule="nonzero"/><g clip-path="url(#id6)"><path fill="#545454" d="M 184.863281 133.878906 C 184.816406 133.878906 184.765625 133.878906 184.71875 133.878906 C 184.335938 133.832031 184.046875 133.449219 184.144531 133.0625 L 184.144531 133.015625 C 184.191406 132.632812 184.574219 132.34375 184.960938 132.4375 C 185.390625 132.488281 185.632812 132.871094 185.582031 133.253906 L 185.582031 133.304688 C 185.488281 133.640625 185.199219 133.878906 184.863281 133.878906 Z M 184.863281 133.878906 " fill-opacity="1" fill-rule="nonzero"/></g><path fill="#545454" d="M 221.125 147.761719 C 220.742188 147.761719 220.40625 147.425781 220.40625 147.039062 C 220.40625 146.65625 220.742188 146.320312 221.125 146.320312 C 221.511719 146.320312 221.847656 146.65625 221.847656 147.039062 C 221.847656 147.425781 221.558594 147.761719 221.125 147.761719 Z M 221.125 147.761719 " fill-opacity="1" fill-rule="nonzero"/><path fill="#545454" d="M 203.113281 192.765625 C 202.875 192.765625 202.632812 192.667969 202.539062 192.429688 L 191.011719 175.136719 C 190.769531 174.800781 190.867188 174.367188 191.203125 174.128906 C 191.539062 173.890625 191.972656 173.984375 192.210938 174.320312 L 203.738281 191.613281 C 203.980469 191.949219 203.882812 192.378906 203.546875 192.621094 C 203.402344 192.714844 203.257812 192.765625 203.113281 192.765625 Z M 203.113281 192.765625 " fill-opacity="1" fill-rule="nonzero"/><path fill="#545454" d="M 221.269531 192.765625 C 221.175781 192.765625 221.078125 192.765625 221.03125 192.714844 C 220.644531 192.570312 220.453125 192.140625 220.597656 191.804688 L 227.898438 173.121094 C 228.042969 172.734375 228.472656 172.542969 228.8125 172.6875 C 229.195312 172.832031 229.386719 173.265625 229.242188 173.601562 L 221.941406 192.285156 C 221.847656 192.570312 221.558594 192.765625 221.269531 192.765625 Z M 221.269531 192.765625 " fill-opacity="1" fill-rule="nonzero"/><path fill="#545454" d="M 203.882812 221.4375 L 191.78125 209.574219 L 202.683594 191.277344 L 221.941406 191.277344 L 223.527344 207.703125 Z M 193.605469 209.382812 L 204.027344 219.613281 L 222.039062 207.078125 L 220.644531 192.765625 L 203.546875 192.765625 Z M 193.605469 209.382812 " fill-opacity="1" fill-rule="nonzero"/><path fill="#545454" d="M 226.890625 209.09375 C 226.839844 209.09375 226.792969 209.09375 226.746094 209.09375 L 222.613281 208.132812 C 222.230469 208.039062 221.992188 207.652344 222.085938 207.269531 C 222.183594 206.886719 222.566406 206.644531 222.949219 206.742188 L 227.082031 207.703125 C 227.464844 207.796875 227.707031 208.183594 227.609375 208.566406 C 227.515625 208.855469 227.226562 209.09375 226.890625 209.09375 Z M 226.890625 209.09375 " fill-opacity="1" fill-rule="nonzero"/><g clip-path="url(#id7)"><path fill="#545454" d="M 195.910156 229.121094 C 195.71875 229.121094 195.527344 229.074219 195.382812 228.929688 C 195.09375 228.640625 195.09375 228.210938 195.382812 227.921875 L 203.402344 220.046875 C 203.691406 219.757812 204.125 219.757812 204.410156 220.046875 C 204.699219 220.332031 204.699219 220.765625 204.410156 221.054688 L 196.4375 228.929688 C 196.292969 229.074219 196.101562 229.121094 195.910156 229.121094 Z M 195.910156 229.121094 " fill-opacity="1" fill-rule="nonzero"/></g><path fill="#545454" d="M 192.691406 210.199219 L 172.664062 210.199219 C 172.28125 210.199219 171.945312 209.863281 171.945312 209.480469 C 171.945312 209.09375 172.28125 208.757812 172.664062 208.757812 L 192.691406 208.757812 C 193.078125 208.757812 193.414062 209.09375 193.414062 209.480469 C 193.414062 209.863281 193.078125 210.199219 192.691406 210.199219 Z M 192.691406 210.199219 " fill-opacity="1" fill-rule="nonzero"/><path fill="#545454" d="M 165.253906 218.726562 L 175.894531 227.105469 L 175.003906 228.238281 L 164.363281 219.855469 Z M 165.253906 218.726562 " fill-opacity="1" fill-rule="nonzero"/><path fill="#545454" d="M 146.246094 190.84375 L 139.042969 175.328125 L 140.292969 174.65625 L 140.339844 174.65625 L 147.59375 190.21875 Z M 146.246094 190.84375 " fill-opacity="1" fill-rule="nonzero"/></svg>